<svg fill="#FFFFFF" xmlns="http://www.w3.org/2000/svg"  viewBox="0 0 72 72" width="64px" height="64px"><path d="M 36 12 C 22.745 12 12 22.745 12 36 C 12 49.255 22.745 60 36 60 C 49.255 60 60 49.255 60 36 C 60 22.745 49.255 12 36 12 z M 36 20 C 44.837 20 52 27.163 52 36 C 52 44.837 44.837 52 36 52 C 27.163 52 20 44.837 20 36 C 20 27.163 27.163 20 36 20 z M 36 25 C 34.343 25 33 26.343 33 28 L 33 33 L 28 33 C 26.343 33 25 34.343 25 36 C 25 37.657 26.343 39 28 39 L 33 39 L 33 44 C 33 45.657 34.343 47 36 47 C 37.657 47 39 45.657 39 44 L 39 39 L 44 39 C 45.657 39 47 37.657 47 36 C 47 34.343 45.657 33 44 33 L 39 33 L 39 28 C 39 26.343 37.657 25 36 25 z"/></svg>